<svg width="20" height="20" viewBox="0 0 20 20" fill="none" xmlns="http://www.w3.org/2000/svg">
<path d="M5.73911 10.0007C4.57056 10.8649 3.52102 11.8744 2.6164 13.0038C2.5388 13.1007 2.5 13.2173 2.5 13.334M5.73911 16.6673C4.57056 15.8031 3.52102 14.7935 2.6164 13.6642C2.5388 13.5673 2.5 13.4506 2.5 13.334M2.5 13.334H14.1667M14.2609 3.33398C15.4294 4.19819 16.479 5.20775 17.3836 6.33714C17.4612 6.43402 17.5 6.55067 17.5 6.66732M14.2609 10.0007C15.4294 9.13645 16.479 8.12688 17.3836 6.99749C17.4612 6.90061 17.5 6.78396 17.5 6.66732M17.5 6.66732H5.83333" stroke="#B5B8BB" stroke-width="1.5" stroke-linecap="round" stroke-linejoin="round"/>
</svg>
