<svg width="20" height="20" viewBox="0 0 20 20" fill="none" xmlns="http://www.w3.org/2000/svg">
<path d="M15.1571 7.5C15.9795 8.11687 16.7223 8.83249 17.3688 9.63036C17.4563 9.73827 17.5 9.86913 17.5 10M15.1571 12.5C15.9795 11.8831 16.7223 11.1675 17.3688 10.3696C17.4563 10.2617 17.5 10.1309 17.5 10M17.5 10H6.66667M10.8333 3.77316C9.94874 2.98142 8.78059 2.5 7.5 2.5C4.73858 2.5 2.5 4.73858 2.5 7.5V12.5C2.5 15.2614 4.73858 17.5 7.5 17.5C8.78059 17.5 9.94874 17.0186 10.8333 16.2268" stroke="#B5B8BB" stroke-width="1.66667" stroke-linecap="round" stroke-linejoin="round"/>
</svg>
