<svg width="20" height="20" viewBox="0 0 20 20" fill="none" xmlns="http://www.w3.org/2000/svg">
<g clip-path="url(#clip0_179_165)">
<path d="M10.0013 17.3952V14.166M10.0013 17.3952C8.54297 17.3952 7.08464 17.7077 5.83464 18.3327M10.0013 17.3952C11.4596 17.3952 12.918 17.7077 14.168 18.3327M10.0013 14.166H16.3346C17.0347 14.166 17.3847 14.166 17.6521 14.0298C17.8873 13.9099 18.0786 13.7187 18.1984 13.4835C18.3346 13.2161 18.3346 12.8661 18.3346 12.166V3.66602C18.3346 2.96595 18.3346 2.61592 18.1984 2.34853C18.0786 2.11332 17.8873 1.9221 17.6521 1.80226C17.3847 1.66602 17.0347 1.66602 16.3346 1.66602H3.66797C2.9679 1.66602 2.61787 1.66602 2.35048 1.80226C2.11528 1.9221 1.92405 2.11332 1.80421 2.34853C1.66797 2.61592 1.66797 2.96595 1.66797 3.66602V12.166C1.66797 12.8661 1.66797 13.2161 1.80421 13.4835C1.92405 13.7187 2.11528 13.9099 2.35048 14.0298C2.61787 14.166 2.9679 14.166 3.66797 14.166H10.0013Z" stroke="#B5B8BB" stroke-width="1.5" stroke-linecap="round" stroke-linejoin="round"/>
</g>
<path d="M3.88191 11.817L5.0003 8.50045L7.5 11L9.5 6L11 8.5L13 4.5L16.5 3.5" stroke="#B5B8BB" stroke-width="0.5"/>
<defs>
<clipPath id="clip0_179_165">
<rect width="20" height="20" fill="white"/>
</clipPath>
</defs>
</svg>
