<svg width="20" height="20" viewBox="0 0 20 20" fill="none" xmlns="http://www.w3.org/2000/svg">
<path d="M4.22371 3.07812C3.95037 4.12322 3.81377 5.19892 3.81699 6.27829C3.81783 6.56015 4.05364 6.65129 4.28334 6.70213L4.28514 6.70253M7.33445 6.99263C6.30936 7.02132 5.28525 6.92374 4.28514 6.70253M4.28514 6.70253C5.28494 5.11627 6.94436 3.95884 8.94442 3.66088C12.5861 3.11837 15.9781 5.63077 16.5206 9.27248C17.0631 12.9142 14.5507 16.3062 10.909 16.8487C7.39837 17.3717 4.1198 15.0557 3.40234 11.6258M11.6651 12.5003L10.2425 11.0777C10.0862 10.9215 9.99842 10.7095 9.99842 10.4885V7.50033" stroke="#B5B8BB" stroke-width="1.5" stroke-linecap="round" stroke-linejoin="round"/>
</svg>
